<?xml version="1.0" standalone="no"?>
<!DOCTYPE svg PUBLIC "-//W3C//DTD SVG 20010904//EN"
 "http://www.w3.org/TR/2001/REC-SVG-20010904/DTD/svg10.dtd">
<svg version="1.0" xmlns="http://www.w3.org/2000/svg"
 width="1480.000000pt" height="1480.000000pt" viewBox="0 0 1480.000000 1480.000000"
 preserveAspectRatio="xMidYMid meet">

<g transform="translate(0.000000,1480.000000) scale(0.100000,-0.100000)"
fill="#000000" stroke="none">
<path d="M5725 10024 c-93 -48 -146 -153 -181 -357 -13 -82 -25 -300 -44 -812
-5 -153 -16 -309 -25 -359 l-16 -90 -117 -120 c-207 -213 -325 -426 -385 -691
l-14 -60 -79 3 c-87 4 -163 -17 -226 -63 -44 -33 -61 -40 -144 -64 -86 -25
-155 -81 -198 -163 -16 -29 -46 -71 -67 -93 -21 -22 -50 -67 -66 -100 -24 -53
-27 -75 -31 -180 -2 -81 1 -143 11 -190 8 -38 29 -135 46 -215 18 -86 41 -251
56 -405 38 -378 63 -535 119 -736 21 -76 22 -88 8 -105 -23 -30 -112 -217
-112 -236 0 -17 -33 -18 -555 -18 -542 0 -555 0 -575 -20 -27 -27 -26 -65 2
-84 20 -14 291 -16 2683 -16 l2660 0 67 -34 c80 -41 165 -53 255 -36 52 9 71
8 108 -5 68 -23 177 -19 260 9 65 22 73 23 105 9 91 -38 232 -24 314 32 l37
25 1012 0 c900 0 1015 2 1035 16 28 19 29 57 2 84 -20 20 -33 20 -855 20
l-834 0 -5 33 c-25 175 -44 264 -73 345 -18 54 -36 104 -39 113 -4 12 14 31
63 66 261 191 407 383 497 653 135 405 124 873 -31 1360 l-37 115 19 433 c29
685 8 957 -89 1167 -64 138 -154 207 -318 241 -91 20 -359 14 -493 -10 -141
-25 -363 -83 -526 -136 l-149 -49 -112 53 c-602 283 -1184 381 -1673 281
l-119 -24 -86 48 c-493 278 -954 433 -1085 365z m310 -155 c55 -17 134 -44
175 -61 111 -43 511 -240 508 -250 -2 -5 -38 -24 -81 -42 -216 -95 -390 -215
-572 -400 -132 -133 -214 -238 -311 -402 -48 -80 -128 -175 -137 -163 -2 2 0
45 4 94 4 50 13 257 19 460 11 394 20 501 50 632 19 80 56 155 82 167 30 13
168 -5 263 -35z m1675 -345 c274 -39 598 -137 880 -267 61 -28 77 -40 87 -65
21 -58 48 -60 170 -14 266 100 596 181 823 202 162 16 289 0 380 -45 55 -28
81 -56 113 -120 90 -180 111 -471 82 -1146 -19 -451 -15 -561 24 -603 22 -24
51 -125 80 -276 93 -482 23 -948 -188 -1258 -51 -76 -165 -187 -280 -275 l-93
-71 -34 37 c-147 160 -346 237 -612 237 -210 0 -375 -44 -514 -136 -136 -91
-246 -246 -283 -401 -23 -97 -17 -239 13 -305 l21 -48 -1995 0 c-1097 0 -1994
2 -1994 4 0 16 64 140 94 181 20 27 36 59 36 70 0 11 -16 79 -35 150 -47 175
-80 379 -110 685 -28 286 -42 378 -87 565 -54 230 -38 384 46 450 17 13 47 55
66 92 46 87 93 122 179 132 49 6 68 13 94 38 86 82 191 96 300 39 47 -24 82
-34 130 -38 95 -8 124 -29 169 -120 27 -55 49 -84 77 -105 22 -15 46 -39 55
-54 23 -39 53 -203 76 -419 39 -362 115 -623 266 -919 97 -188 128 -220 179
-187 42 28 42 58 -3 134 -158 267 -281 635 -307 917 -4 39 -13 124 -21 190
-33 270 -64 363 -144 423 -33 25 -54 53 -76 101 -48 104 -121 152 -252 168
l-54 6 7 46 c13 89 57 218 110 327 92 189 169 281 495 585 116 108 143 139
190 220 267 458 691 766 1182 860 211 40 432 45 658 13z m1665 -3819 c264 -73
410 -272 459 -624 9 -61 16 -114 16 -116 0 -3 -34 -5 -75 -5 -41 0 -75 2 -75
4 0 2 7 23 15 46 40 112 7 189 -68 161 -19 -8 -29 -21 -37 -53 -24 -98 -32
-119 -57 -149 -54 -64 -169 -89 -242 -51 -57 29 -76 78 -77 206 -2 120 -9 136
-64 136 -53 0 -65 -30 -65 -154 1 -83 5 -121 18 -150 12 -26 14 -43 7 -50 -5
-5 -47 -11 -92 -14 -75 -3 -86 -2 -118 20 -53 36 -82 97 -90 189 -8 90 -19
109 -66 109 -55 0 -67 -21 -62 -114 5 -72 14 -110 43 -180 8 -18 5 -19 -47
-13 -69 7 -124 34 -170 85 -56 61 -71 115 -66 226 4 87 7 101 47 181 86 175
252 292 460 325 86 14 336 4 406 -15z"/>
<path d="M6109 7917 c-147 -62 -219 -168 -219 -322 0 -106 28 -174 99 -246 77
-77 145 -102 261 -97 63 3 97 10 133 27 66 33 133 101 165 169 36 77 39 211 5
284 -30 66 -105 143 -171 175 -79 39 -195 43 -273 10z m306 -101 c73 -31 76
-124 4 -162 -79 -40 -161 48 -118 127 6 12 25 27 42 34 40 18 32 17 72 1z"/>
<path d="M8142 7589 c-70 -12 -125 -41 -181 -97 -74 -75 -96 -129 -96 -242 0
-77 4 -104 22 -142 30 -67 106 -143 172 -175 48 -23 69 -27 146 -28 78 0 97 4
145 27 72 35 136 99 169 168 22 47 26 68 26 150 0 84 -3 102 -28 152 -66 135
-220 212 -375 187z m267 -135 c63 -53 28 -154 -54 -154 -48 0 -95 45 -95 90 0
22 9 41 29 61 37 37 79 38 120 3z"/>
<path d="M6774 7206 c-17 -8 -39 -24 -48 -37 -38 -55 -6 -192 63 -270 l38 -44
-5 -78 c-4 -74 -6 -79 -40 -106 -87 -72 -194 -59 -307 39 -27 23 -57 40 -71
40 -32 0 -64 -33 -64 -67 0 -56 148 -159 262 -183 75 -15 160 2 228 44 l50 32
68 -67 c74 -72 157 -118 263 -145 95 -24 275 -15 394 21 100 29 125 46 125 84
0 32 -8 44 -38 60 -18 10 -36 7 -105 -15 -97 -31 -254 -43 -335 -25 -165 35
-325 188 -304 290 4 19 14 37 22 41 8 4 35 16 60 28 142 62 213 198 141 269
-32 33 -153 78 -251 93 -84 13 -108 12 -146 -4z"/>
</g>
</svg>
